<svg width="12" height="14" viewBox="0 0 12 14" fill="none" xmlns="http://www.w3.org/2000/svg">
<path d="M6.00008 0.00332642C3.06402 0.00332642 0.669312 2.39804 0.669312 5.3341C0.669312 6.49864 1.03834 7.60579 1.7355 8.53252L5.67201 13.836C5.72935 13.918 5.88524 14 6.00008 14C6.12313 14 6.27079 13.9098 6.32815 13.836C6.34448 13.8113 10.3057 8.4751 10.3385 8.42588C10.3467 8.42588 10.3467 8.42588 10.3467 8.41774C10.9864 7.51558 11.3308 6.44942 11.3308 5.3341C11.3309 2.39806 8.93615 0.00332642 6.00008 0.00332642ZM6.00008 8.20451C4.41732 8.20451 3.12967 6.91692 3.12967 5.3341C3.12967 3.75128 4.41732 2.46369 6.00008 2.46369C7.58285 2.46369 8.8705 3.75128 8.8705 5.3341C8.8705 6.91692 7.58285 8.20451 6.00008 8.20451Z" fill="#121714"/>
</svg>
